<?xml version="1.0" encoding="iso-8859-1"?>
<!-- Uploaded to: SVG Repo, www.svgrepo.com, Generator: SVG Repo Mixer Tools -->
<svg height="800px" width="800px" version="1.1" id="Layer_1" xmlns="http://www.w3.org/2000/svg" xmlns:xlink="http://www.w3.org/1999/xlink" 
	 viewBox="0 0 512.001 512.001" xml:space="preserve">
<circle style="fill:#FEE187;" cx="106.095" cy="362.771" r="48.194"/>
<path style="fill:#FFC61B;" d="M497.832,341.723H438.12c-8.654-24.054-31.693-41.305-58.691-41.305
	c-26.998,0-50.035,17.25-58.689,41.305H212.566v-83.839c0-7.823-6.344-14.166-14.166-14.166s-14.166,6.344-14.166,14.166v83.84
	h-19.447c-8.654-24.054-31.693-41.305-58.689-41.305c-26.998,0-50.037,17.25-58.691,41.305h-9.477c-5.291,0-9.595-4.304-9.595-9.593
	v-61.674c0-2.512,0.975-4.897,2.706-6.679l34.322-19.707c0.416-0.239,0.815-0.503,1.201-0.782h52.13
	c7.823,0,14.166-6.344,14.166-14.166s-6.344-14.166-14.166-14.166H79.842l25.75-67.875c8.77-19.309,28.085-31.806,49.224-31.874
	l29.418,0.093v51.969c0,7.823,6.344,14.166,14.166,14.166s14.166-6.344,14.166-14.166v-66.093c0-7.807-6.315-14.141-14.121-14.166
	l-43.629-0.139c-32.487,0.103-62.027,19.343-75.257,49.015c-0.108,0.245-0.21,0.493-0.306,0.744l-32.395,85.389l-31.265,17.953
	c-0.727,0.417-1.415,0.898-2.057,1.438C4.933,248.636,0,259.223,0,270.455v61.674c0,20.914,17.015,37.926,37.927,37.926h6.252
	c3.619,30.963,29.998,55.074,61.918,55.074c31.918,0,58.296-24.111,61.916-55.074h149.501c3.619,30.963,29.998,55.074,61.917,55.074
	c7.823,0,14.166-6.344,14.166-14.166c0-7.823-6.344-14.166-14.166-14.166c-18.76,0-34.023-15.263-34.023-34.025
	s15.261-34.023,34.023-34.023s34.025,15.261,34.025,34.023c0,7.823,6.344,14.166,14.166,14.166c5.157,0,9.656-2.765,12.135-6.883
	h58.079c7.823,0,14.166-6.344,14.166-14.166C512.001,348.067,505.655,341.723,497.832,341.723z M106.097,396.797
	c-18.76,0-34.025-15.263-34.025-34.025s15.263-34.023,34.025-34.023s34.023,15.261,34.023,34.023
	C140.12,381.534,124.857,396.797,106.097,396.797z"/>
<polygon style="fill:#FEE187;" points="420.534,101.361 420.534,189.95 382.285,169.172 344.036,189.95 344.036,101.361 
	266.738,101.361 266.738,257.883 497.832,257.883 497.832,101.361 "/>
<path style="fill:#FFC61B;" d="M497.834,272.05H266.738c-7.823,0-14.166-6.344-14.166-14.166V101.361
	c0-7.823,6.344-14.166,14.166-14.166h77.298c7.823,0,14.166,6.344,14.166,14.166v64.772l17.321-9.409
	c4.217-2.291,9.307-2.291,13.525,0l17.321,9.409v-64.772c0-7.823,6.344-14.166,14.166-14.166h77.298
	c7.823,0,14.166,6.344,14.166,14.166v156.523C512,265.707,505.656,272.05,497.834,272.05z M280.904,243.718h202.763V115.527h-48.966
	v74.421c0,4.995-2.631,9.622-6.924,12.176c-4.294,2.554-9.615,2.658-14.005,0.272l-31.487-17.103l-31.487,17.103
	c-4.39,2.386-9.71,2.281-14.005-0.272c-4.292-2.554-6.924-7.179-6.924-12.176v-74.421h-48.966v128.191H280.904z"/>
</svg>